<?xml version="1.0" encoding="UTF-8" standalone="no"?>
<!-- Created with Inkscape (http://www.inkscape.org/) -->

<svg
   width="512"
   height="512"
   viewBox="0 0 512 512"
   version="1.1"
   id="svg1"
   inkscape:version="1.2.2 (b0a8486541, 2022-12-01)"
   sodipodi:docname="notifications.svg"
   xmlns:inkscape="http://www.inkscape.org/namespaces/inkscape"
   xmlns:sodipodi="http://sodipodi.sourceforge.net/DTD/sodipodi-0.dtd"
   xmlns="http://www.w3.org/2000/svg"
   xmlns:svg="http://www.w3.org/2000/svg">
  <sodipodi:namedview
     id="namedview1"
     pagecolor="#ffffff"
     bordercolor="#000000"
     borderopacity="0.25"
     inkscape:showpageshadow="2"
     inkscape:pageopacity="0.0"
     inkscape:pagecheckerboard="0"
     inkscape:deskcolor="#d1d1d1"
     inkscape:document-units="px"
     inkscape:zoom="0.35355339"
     inkscape:cx="-52.325902"
     inkscape:cy="25.455844"
     inkscape:window-width="1920"
     inkscape:window-height="1016"
     inkscape:window-x="2048"
     inkscape:window-y="1168"
     inkscape:window-maximized="1"
     inkscape:current-layer="layer1"
     showgrid="false" />
  <defs
     id="defs1">
    <inkscape:path-effect
       effect="spiro"
       id="path-effect1699"
       is_visible="true"
       lpeversion="1" />
    <inkscape:path-effect
       effect="spiro"
       id="path-effect1699-3"
       is_visible="true"
       lpeversion="1" />
  </defs>
  <g
     inkscape:label="Layer 1"
     inkscape:groupmode="layer"
     id="layer1">
    <path
       id="path2300"
       style="fill:none;fill-opacity:1;stroke:#000000;stroke-width:42;stroke-linecap:square;stroke-dasharray:none;stroke-opacity:1"
       d="M 386.62977,214.80552 V 341.2095 l 24.56786,44.79364 H 344.40398 167.59602 l -66.79365,1e-5 24.56785,-44.79365 V 214.80552 c 0,-74.35397 56.27581,-122.629771 130.62978,-122.629771 74.35397,0 130.62977,48.275801 130.62977,122.629771 z"
       sodipodi:nodetypes="sccccccsss" />
    <path
       id="path2303"
       style="fill:none;stroke:#000000;stroke-width:42;stroke-linecap:butt;stroke-dasharray:none"
       d="m 229.14919,95.239058 c 0,-14.829292 12.02152,-26.850808 26.85081,-26.850807 14.82929,-10e-7 26.85081,12.021515 26.85081,26.850807"
       sodipodi:nodetypes="csc" />
    <path
       id="path2317"
       style="fill:#000000;fill-opacity:1;stroke:none;stroke-width:24;stroke-linecap:square;stroke-dasharray:none;stroke-opacity:1"
       d="m 306.63198,423.3455 c 0,0 -1.70381,6.60967 -3.01143,9.70123 -2.61524,6.18315 -6.39957,11.75142 -11.07587,16.42773 -4.6763,4.67629 -10.24457,8.46062 -16.42773,11.07587 -6.18314,2.61525 -12.98116,4.06142 -20.11695,4.06142 -7.13579,0 -13.93381,-1.44618 -20.11695,-4.06142 -6.18315,-2.61526 -11.75142,-6.39958 -16.42773,-11.07588 -4.6763,-4.6763 -8.46062,-10.24457 -11.07587,-16.42772 -1.30762,-3.09156 -3.01143,-9.70123 -3.01143,-9.70123 z"
       sodipodi:nodetypes="cssssssscc" />
  </g>
</svg>
